FFprobe version 0.6, Copyright (c) 2007-2010 the FFmpeg developers
  built on Jul 11 2010 14:13:56 with gcc 4.2.1 (Apple Inc. build 5646) (dot 1)
  configuration: --arch=x86_64 --cpu=core2 --prefix=/opt/ffmpeg --enable-static --enable-shared --enable-gpl --enable-nonfree --enable-postproc --enable-avfilter-lavf --enable-bzlib --enable-libfaac --enable-libmp3lame --enable-libtheora --enable-libvorbis --enable-libx264 --enable-zlib
  libavutil     50.15. 1 / 50.15. 1
  libavcodec    52.72. 2 / 52.72. 2
  libavformat   52.64. 2 / 52.64. 2
  libavdevice   52. 2. 0 / 52. 2. 0
  libswscale     0.11. 0 /  0.11. 0
  libpostproc   51. 2. 0 / 51. 2. 0
Input #0, ogg, from '/Users/philip/Projects/ffprobe/test/testcases/source.ogv':
  Duration: 00:00:05.66, start: 0.000000, bitrate: 241 kb/s
    Stream #0.0: Video: theora, yuv420p, 320x240 [PAR 1:1 DAR 4:3], 49.58 tbr, 49.58 tbn, 49.58 tbc
    Stream #0.1: Audio: vorbis, 22050 Hz, stereo, s16
[STREAM]
index=0
codec_name=theora
codec_long_name=Theora
codec_type=video
codec_time_base=12/595
codec_tag_string=[0][0][0][0]
codec_tag=0x0000
width=320
height=240
has_b_frames=0
sample_aspect_ratio=1:1
display_aspect_ratio=4:3
pix_fmt=yuv420p
r_frame_rate=595/12
avg_frame_rate=0/0
time_base=12/595
start_time=0.000000 
duration=4.699160 
[/STREAM]
[STREAM]
index=1
codec_name=vorbis
codec_long_name=Vorbis
codec_type=audio
codec_time_base=0/1
codec_tag_string=[0][0][0][0]
codec_tag=0x0000
sample_rate=22050.000000 
channels=2
bits_per_sample=0
r_frame_rate=0/0
avg_frame_rate=0/0
time_base=1/22050
start_time=0.000000 
duration=5.665669 
[/STREAM]
[FORMAT]
filename=/Users/philip/Projects/ffprobe/test/testcases/source.ogv
nb_streams=2
format_name=ogg
format_long_name=Ogg
start_time=0.000000 
duration=5.665669 
size=171231.000000 
bit_rate=241780.000000 
[/FORMAT]
